<svg xmlns="http://www.w3.org/2000/svg"  viewBox="0 0 96 96" width="192px" height="192px" baseProfile="basic"><path fill="#4d4dff" d="M60.89,40.749c-2.593,0-5.204-0.89-7.153-2.572c-2.841-2.452-3.825-6.098-2.701-10.003	c0.458-1.592,2.117-2.514,3.713-2.053c0.056,0.016,0.11,0.033,0.164,0.052c-0.015-0.026-0.029-0.052-0.043-0.079	c-0.771-1.466-0.208-3.28,1.259-4.052c3.064-1.612,6.727-1.438,9.793,0.469c3.051,1.896,4.819,5.088,4.731,8.54	c-0.018,4.002-1.986,7.225-5.4,8.779C63.894,40.449,62.395,40.749,60.89,40.749z M56.53,27.529c0.382,0.676,0.503,1.5,0.271,2.305	c-0.475,1.65-0.195,2.894,0.855,3.8c1.303,1.124,3.548,1.446,5.11,0.735c1.262-0.574,1.879-1.689,1.887-3.408	c0.034-1.363-0.676-2.593-1.899-3.353c-1.237-0.771-2.67-0.865-3.833-0.254C58.153,27.759,57.288,27.795,56.53,27.529z" opacity=".3"/><path fill="#4d4dff" d="M60.88,39.753c-2.353,0-4.722-0.807-6.49-2.333c-2.533-2.186-3.405-5.455-2.394-8.969	c0.306-1.062,1.413-1.674,2.476-1.369c1.062,0.306,1.674,1.414,1.368,2.475c-0.578,2.007-0.176,3.679,1.163,4.834	c1.6,1.38,4.256,1.764,6.178,0.888c1.608-0.732,2.463-2.224,2.473-4.314c0.043-1.701-0.844-3.258-2.371-4.207	c-1.545-0.959-3.348-1.068-4.827-0.29c-0.978,0.515-2.187,0.138-2.701-0.839c-0.514-0.978-0.138-2.187,0.84-2.701	c2.746-1.445,6.037-1.285,8.8,0.433c2.746,1.707,4.338,4.572,4.259,7.665c-0.016,3.617-1.771,6.509-4.814,7.895	C63.605,39.481,62.245,39.753,60.88,39.753z" opacity=".3"/><path fill="#0fd2ff" d="M59.554,52.965c-3.61,0-5.973-1.146-6.708-4.998c-0.166-0.868-0.274-1.437-0.934-2.101	c-0.413-0.1-0.825-0.004-1.735,0.277c-2.956,0.911-6.033,1.023-8.576-4.191c-3.259-4.805-1.506-7.513,0.651-9.53	c0.842-0.787,1.091-1.076,1.155-1.642c-0.014-0.103-0.149-0.547-1.384-1.377c-0.118-0.08-0.231-0.168-0.338-0.264	c-4.104-3.708-0.442-8.767,1.12-10.927c0.229-0.315,0.441-0.607,0.615-0.869c1.24-1.832,3.897-3.075,7.738-1.274	c0.497,0.088,0.784,0.078,0.916,0.063c0.157-0.3,0.331-1.02,0.439-1.469c0.416-1.714,1.188-4.906,4.717-5.4	c0.036-0.005,0.071-0.01,0.107-0.013c6.018-0.626,10.038-0.645,11.05,4.563c0.152,0.782,0.269,1.384,0.897,2.124	c0.97,0.202,1.558,0.002,2.322-0.258c4.656-1.582,6.688,0.972,9.481,7.291c0.545,1.229,1.342,4.387-2.927,7.281	c-0.221,0.181-0.294,0.356-0.271,0.628c0.042,0.474,0.416,1.125,1.052,1.449c0.194,0.099,0.377,0.219,0.545,0.358	c2.835,2.341,2.088,6.603,0.091,9.788c-2.261,3.604-5.569,5.085-8.427,3.774l-0.15-0.064c-0.385-0.167-0.993-0.429-1.332-0.498	c-1.094,1.159-2.938,1.287-4.159,0.235c-1.255-1.081-1.42-2.951-0.339-4.207c2.832-3.29,6.496-1.777,8.134-1.071	c0.819-0.493,1.946-2.438,2.042-3.486c-1.942-1.324-3.231-3.452-3.434-5.754c-0.206-2.355,0.77-4.534,2.678-5.977	c0.049-0.037,0.099-0.072,0.149-0.106c0.288-0.191,0.485-0.345,0.62-0.462c-0.925-2.042-1.505-3.025-1.837-3.494	c-1.305,0.444-3.487,1.175-6.765,0.094c-0.414-0.137-0.793-0.361-1.111-0.659c-2.434-2.279-2.883-4.465-3.141-5.792	c-0.578-0.052-1.719-0.061-3.923,0.148c-0.084,0.28-0.173,0.645-0.239,0.92c-0.487,2.012-1.783,7.355-8.814,5.785	c-0.248-0.056-0.488-0.143-0.715-0.259c-0.335-0.171-0.611-0.275-0.816-0.336c-0.106,0.148-0.219,0.304-0.334,0.464	c-0.504,0.696-1.621,2.24-1.819,3.028c2.467,1.805,3.663,3.926,3.556,6.314c-0.002,0.036-0.004,0.072-0.007,0.108	c-0.244,3.005-1.999,4.646-3.047,5.625c-0.163,0.152-0.366,0.342-0.506,0.488c0.086,0.234,0.299,0.687,0.819,1.43	c0.098,0.14,0.184,0.289,0.257,0.444c0.387,0.822,0.675,1.236,0.837,1.432c0.191-0.048,0.447-0.127,0.653-0.19	c1.358-0.419,3.63-1.12,6.348,0.126c0.244,0.112,0.472,0.256,0.678,0.429c2.598,2.18,3.039,4.495,3.304,5.878	c0.006,0.03,0.012,0.063,0.018,0.095c0.723,0.063,2.394,0.035,6.155-0.562c1.634-0.263,3.173,0.856,3.433,2.493	c0.26,1.636-0.856,3.173-2.493,3.433C63.473,52.679,61.357,52.965,59.554,52.965z M73.562,40.753l0.023,0.01	C73.578,40.76,73.57,40.756,73.562,40.753z" opacity=".3"/><path fill="#0fd2ff" d="M59.504,51.957c-3.508,0-5.094-1.125-5.676-4.177c-0.188-0.982-0.352-1.838-1.393-2.797	c-0.826-0.301-1.498-0.12-2.554,0.204c-2.469,0.763-5.081,1.1-7.413-3.737c-3.028-4.418-1.433-6.522,0.466-8.297	c0.889-0.83,1.395-1.35,1.479-2.377c0.007-0.179,0.041-0.943-1.832-2.202c-0.079-0.053-0.154-0.112-0.225-0.176	c-3.438-3.107-0.266-7.492,1.26-9.599c0.236-0.327,0.457-0.63,0.638-0.901c1.304-1.925,3.753-2.238,6.599-0.867	c2.013,0.42,2.123-0.021,2.635-2.132c0.384-1.588,1.028-4.245,3.884-4.646c6.745-0.702,9.262-0.238,10.036,3.751	c0.177,0.912,0.345,1.777,1.345,2.833c1.438,0.38,2.284,0.093,3.178-0.211c3.886-1.321,5.536,0.622,8.246,6.748	c0.551,1.244,0.941,3.683-2.606,6.07c-0.508,0.4-0.728,0.898-0.673,1.521c0.079,0.9,0.719,1.806,1.593,2.252	c0.13,0.066,0.251,0.146,0.363,0.239c2.367,1.955,1.646,5.67-0.12,8.485c-1.977,3.151-4.788,4.485-7.162,3.396l-0.17-0.072	c-1.797-0.776-2.083-0.702-2.438-0.29c-0.72,0.836-1.981,0.932-2.82,0.211c-0.837-0.72-0.932-1.983-0.211-2.82	c2.397-2.786,5.545-1.427,7.056-0.772l0.205,0.088c0.165,0.078,0.743-0.125,1.469-0.945c1.352-1.526,1.865-3.566,1.653-4.153	c-1.896-1.119-3.216-3.146-3.402-5.269c-0.176-2.005,0.657-3.861,2.285-5.092c0.032-0.024,0.065-0.048,0.1-0.071	c1.135-0.754,1.237-1.151,1.238-1.155c-1.634-3.665-2.406-4.563-2.68-4.783c-0.156,0.035-0.429,0.127-0.638,0.198	c-1.263,0.429-3.168,1.076-6.144,0.096c-0.275-0.091-0.528-0.241-0.74-0.439c-2.229-2.087-2.604-4.022-2.853-5.303	c-0.04-0.206-0.092-0.471-0.137-0.624c-0.342-0.125-1.533-0.331-5.489,0.081c-0.129,0.167-0.349,1.075-0.48,1.618	c-0.503,2.077-1.556,6.396-7.624,5.044c-0.166-0.037-0.326-0.095-0.477-0.172c-0.894-0.458-1.518-0.55-1.741-0.522	c-0.19,0.282-0.425,0.606-0.676,0.954c-1.215,1.678-2.451,3.516-1.882,4.219c1.053,0.716,3.568,2.576,3.43,5.664	c-0.218,2.691-1.734,4.109-2.738,5.048c-1.113,1.041-1.256,1.174,0.178,3.222c0.065,0.094,0.123,0.193,0.171,0.296	c1.068,2.271,1.254,2.213,2.689,1.772c1.302-0.401,3.268-1.007,5.637,0.08c0.162,0.075,0.314,0.171,0.451,0.286	c2.325,1.951,2.71,3.966,2.965,5.299c0.05,0.26,0.115,0.604,0.173,0.762c0.339,0.151,1.719,0.431,7.139-0.428	c1.09-0.174,2.116,0.57,2.289,1.662s-0.571,2.116-1.662,2.289C63.16,51.716,61.126,51.957,59.504,51.957z" opacity=".3"/><path fill="#4d4dff" d="M35.122,74.749c-2.587,0-5.192-0.888-7.136-2.566c-2.835-2.446-3.817-6.084-2.695-9.98	c0.458-1.592,2.117-2.515,3.713-2.053c0.047,0.014,0.093,0.028,0.139,0.043c-0.01-0.019-0.021-0.037-0.03-0.056	c-0.771-1.466-0.208-3.28,1.259-4.052c3.06-1.608,6.711-1.434,9.771,0.467c3.043,1.891,4.809,5.076,4.721,8.52	c-0.018,3.994-1.982,7.209-5.389,8.76C38.119,74.45,36.624,74.749,35.122,74.749z M30.799,61.58	c0.372,0.672,0.487,1.486,0.258,2.283c-0.473,1.641-0.194,2.876,0.85,3.778c1.295,1.117,3.527,1.438,5.083,0.731	c1.254-0.571,1.867-1.679,1.875-3.389c0.034-1.355-0.673-2.579-1.889-3.334c-1.232-0.766-2.657-0.861-3.812-0.253	C32.404,61.796,31.552,61.836,30.799,61.58z" opacity=".3"/><path fill="#4d4dff" d="M35.113,73.753c-2.347,0-4.711-0.805-6.474-2.327c-2.527-2.181-3.397-5.441-2.388-8.946	c0.305-1.063,1.413-1.673,2.476-1.369c1.062,0.306,1.674,1.414,1.368,2.475c-0.575,1.998-0.175,3.662,1.157,4.812	c1.592,1.375,4.238,1.755,6.15,0.884c1.601-0.729,2.451-2.213,2.461-4.294c0.043-1.693-0.84-3.243-2.361-4.188	c-1.538-0.956-3.333-1.063-4.805-0.289c-0.979,0.516-2.187,0.139-2.701-0.839c-0.514-0.978-0.138-2.187,0.84-2.701	c2.74-1.443,6.023-1.28,8.777,0.431c2.739,1.702,4.328,4.56,4.249,7.646c-0.016,3.608-1.767,6.493-4.803,7.875	C37.831,73.482,36.475,73.753,35.113,73.753z" opacity=".3"/><path fill="#0fd2ff" d="M33.786,87.009c-3.612,0-5.977-1.146-6.713-5c-0.166-0.87-0.274-1.439-0.936-2.106	c-0.417-0.101-0.83-0.004-1.74,0.277c-2.954,0.912-6.037,1.025-8.582-4.194c-3.261-4.809-1.508-7.519,0.651-9.537	c0.844-0.789,1.093-1.079,1.157-1.646c-0.014-0.103-0.149-0.55-1.386-1.381c-0.119-0.08-0.232-0.169-0.339-0.265	c-4.104-3.711-0.441-8.773,1.123-10.935c0.229-0.316,0.441-0.609,0.615-0.871c1.242-1.832,3.901-3.072,7.742-1.274	c0.504,0.089,0.79,0.078,0.921,0.063c0.157-0.3,0.333-1.022,0.441-1.472c0.416-1.716,1.189-4.91,4.72-5.405	c0.036-0.005,0.071-0.01,0.107-0.013c6.021-0.625,10.047-0.645,11.059,4.566c0.152,0.784,0.27,1.387,0.9,2.128	c0.97,0.202,1.561,0.002,2.328-0.258c4.657-1.58,6.69,0.973,9.488,7.297c0.545,1.23,1.341,4.39-2.929,7.285	c-0.223,0.182-0.297,0.358-0.272,0.631c0.041,0.476,0.417,1.128,1.055,1.454c0.194,0.099,0.377,0.219,0.545,0.358	c2.836,2.342,2.089,6.607,0.09,9.794c-2.261,3.606-5.571,5.089-8.432,3.778l-0.15-0.064c-0.387-0.167-0.997-0.431-1.336-0.5	c-1.096,1.16-2.94,1.287-4.16,0.237c-1.256-1.081-1.421-2.951-0.34-4.207c2.832-3.29,6.503-1.778,8.141-1.071	c0.822-0.493,1.954-2.445,2.048-3.496c-1.945-1.325-3.235-3.456-3.438-5.76c-0.206-2.357,0.771-4.537,2.68-5.98	c0.049-0.037,0.099-0.072,0.148-0.105c0.29-0.192,0.489-0.347,0.624-0.464c-0.929-2.049-1.51-3.034-1.842-3.503	c-1.309,0.443-3.491,1.177-6.773,0.095c-0.414-0.137-0.793-0.361-1.111-0.659c-2.437-2.282-2.886-4.471-3.144-5.8	c-0.581-0.053-1.723-0.061-3.933,0.148c-0.086,0.281-0.175,0.648-0.241,0.925c-0.488,2.012-1.776,7.356-8.82,5.789	c-0.248-0.056-0.488-0.142-0.715-0.258c-0.337-0.172-0.614-0.277-0.821-0.337c-0.105,0.149-0.219,0.305-0.335,0.465	c-0.505,0.698-1.625,2.247-1.823,3.036c2.471,1.806,3.668,3.93,3.561,6.319c-0.002,0.036-0.004,0.072-0.007,0.108	c-0.244,3.007-2,4.648-3.05,5.629c-0.163,0.153-0.367,0.344-0.508,0.491c0.087,0.234,0.3,0.688,0.822,1.435	c0.098,0.14,0.184,0.289,0.257,0.443c0.389,0.826,0.678,1.241,0.84,1.437c0.192-0.048,0.449-0.128,0.656-0.191	c1.357-0.419,3.632-1.12,6.353,0.127c0.244,0.112,0.472,0.256,0.678,0.429c2.6,2.182,3.042,4.499,3.306,5.883	c0.006,0.031,0.013,0.064,0.02,0.097c0.721,0.064,2.394,0.036,6.165-0.562c1.638-0.26,3.173,0.856,3.433,2.493	c0.26,1.637-0.856,3.174-2.493,3.433C37.709,86.723,35.592,87.009,33.786,87.009z M47.812,74.791l0.022,0.01	C47.826,74.797,47.818,74.794,47.812,74.791z" opacity=".3"/><path fill="#0fd2ff" d="M33.736,86.001c-3.511,0-5.098-1.126-5.681-4.18c-0.188-0.984-0.352-1.841-1.395-2.801	c-0.824-0.3-1.5-0.121-2.559,0.204c-2.474,0.763-5.085,1.099-7.419-3.741c-3.031-4.423-1.435-6.528,0.466-8.304	c0.89-0.832,1.396-1.352,1.48-2.381c0.007-0.18,0.041-0.947-1.834-2.207c-0.08-0.054-0.155-0.112-0.227-0.177	c-3.438-3.11-0.263-7.498,1.263-9.607c0.237-0.327,0.457-0.631,0.639-0.902c1.305-1.926,3.76-2.238,6.603-0.867	c2.024,0.424,2.13-0.022,2.641-2.136c0.386-1.589,1.03-4.249,3.887-4.65c6.763-0.705,9.271-0.238,10.046,3.753	c0.178,0.914,0.346,1.781,1.348,2.838c1.438,0.379,2.289,0.093,3.184-0.211c3.885-1.316,5.54,0.622,8.253,6.755	c0.551,1.246,0.94,3.686-2.608,6.075c-0.509,0.401-0.73,0.9-0.675,1.525c0.079,0.903,0.72,1.81,1.596,2.257	c0.13,0.066,0.251,0.146,0.363,0.239c2.368,1.956,1.646,5.675-0.12,8.492c-1.979,3.155-4.793,4.489-7.168,3.4l-0.171-0.073	c-1.802-0.778-2.087-0.703-2.443-0.29c-0.721,0.836-1.981,0.932-2.82,0.211c-0.837-0.721-0.932-1.983-0.211-2.82	c2.398-2.788,5.548-1.427,7.063-0.772l0.204,0.088c0.159,0.072,0.745-0.124,1.477-0.951c1.352-1.529,1.864-3.571,1.651-4.158	c-1.897-1.119-3.219-3.148-3.405-5.274c-0.176-2.006,0.658-3.864,2.287-5.095c0.032-0.024,0.065-0.048,0.099-0.07	c1.139-0.757,1.24-1.155,1.24-1.159c-1.637-3.674-2.41-4.573-2.684-4.791c-0.156,0.035-0.43,0.127-0.64,0.199	c-1.264,0.429-3.173,1.076-6.149,0.096c-0.275-0.091-0.528-0.241-0.74-0.439c-2.23-2.089-2.606-4.026-2.855-5.309	c-0.04-0.206-0.092-0.473-0.137-0.626c-0.342-0.125-1.531-0.331-5.498,0.08c-0.131,0.167-0.352,1.078-0.483,1.622	c-0.503,2.078-1.549,6.404-7.63,5.048c-0.165-0.037-0.325-0.095-0.477-0.172c-0.896-0.459-1.509-0.551-1.746-0.524	c-0.19,0.283-0.425,0.607-0.676,0.956c-1.217,1.681-2.456,3.522-1.884,4.228c1.053,0.716,3.57,2.577,3.432,5.668	c-0.217,2.693-1.735,4.113-2.74,5.052c-1.115,1.043-1.259,1.177,0.178,3.229c0.065,0.094,0.123,0.192,0.171,0.296	c1.069,2.272,1.253,2.221,2.695,1.775c1.303-0.401,3.271-1.008,5.642,0.081c0.162,0.075,0.314,0.171,0.451,0.286	c2.328,1.953,2.713,3.97,2.968,5.304c0.049,0.26,0.115,0.605,0.173,0.763c0.338,0.153,1.722,0.433,7.149-0.428	c1.093-0.173,2.116,0.57,2.289,1.662s-0.571,2.116-1.662,2.289C37.396,85.76,35.36,86.001,33.736,86.001z" opacity=".3"/><path fill="#4d4dff" d="M60.87,38.758c-2.112,0-4.239-0.725-5.827-2.095c-2.225-1.92-2.985-4.813-2.086-7.936	c0.152-0.529,0.706-0.838,1.237-0.684c0.531,0.153,0.837,0.707,0.685,1.238c-0.876,3.044,0.316,4.871,1.471,5.868	c1.908,1.646,4.955,2.084,7.246,1.041c1.387-0.631,3.043-2.049,3.058-5.219c0.052-2.039-1.012-3.923-2.844-5.061	c-1.848-1.148-4.024-1.271-5.819-0.326c-0.487,0.257-1.094,0.069-1.351-0.42c-0.258-0.489-0.069-1.093,0.419-1.351	c2.432-1.278,5.35-1.129,7.807,0.397c2.441,1.517,3.857,4.055,3.788,6.79c-0.015,3.23-1.557,5.793-4.229,7.01	C63.317,38.514,62.097,38.758,60.87,38.758z"/><path fill="#0fd2ff" d="M59.477,50.954c-3.349,0-4.232-1.085-4.667-3.362c-0.21-1.104-0.428-2.244-1.841-3.474	c-1.271-0.537-2.298-0.221-3.381,0.113c-2.316,0.714-4.249,0.924-6.251-3.285c-2.643-3.816-1.437-5.458,0.28-7.064	c0.861-0.804,1.674-1.564,1.792-3.027c0.046-1.04-0.674-2.04-2.27-3.112c-0.04-0.027-0.077-0.056-0.113-0.088	c-2.771-2.505-0.16-6.114,1.399-8.27c0.245-0.338,0.473-0.652,0.66-0.933c1.012-1.492,3.037-1.66,5.437-0.47	c3.094,0.656,3.409-0.671,3.937-2.848c0.387-1.597,0.868-3.585,3.051-3.891c7.105-0.74,8.344,0.007,8.916,2.951	c0.198,1.022,0.422,2.176,1.799,3.532c1.892,0.571,3.023,0.187,4.027-0.154c2.826-0.961,4.162-0.229,7.009,6.206	c0.76,1.712-0.017,3.352-2.305,4.873c-0.973,0.738-1.116,1.716-1.056,2.401c0.109,1.25,0.947,2.449,2.134,3.055	c0.064,0.033,0.126,0.073,0.182,0.12c1.89,1.561,1.153,4.817-0.33,7.183c-1.694,2.701-4.009,3.884-5.899,3.019l-0.189-0.082	c-1.793-0.775-2.729-1.028-3.593-0.024c-0.36,0.419-0.994,0.464-1.41,0.105c-0.419-0.36-0.466-0.992-0.105-1.41	c1.915-2.227,4.314-1.193,5.901-0.507l0.208,0.089c1.063,0.485,2.499-0.829,3.394-2.253c1.131-1.805,1.488-3.836,0.812-4.523	c-1.721-0.932-2.931-2.722-3.095-4.598c-0.146-1.655,0.544-3.188,1.891-4.207c2.094-1.394,1.76-2.148,1.634-2.433	c-2.563-5.796-3.181-5.582-4.538-5.122c-1.134,0.386-2.851,0.97-5.508,0.093c-0.138-0.045-0.264-0.121-0.37-0.22	c-1.992-1.865-2.33-3.61-2.555-4.764c-0.273-1.416-0.382-2.002-6.71-1.347c-0.726,0.103-0.96,0.768-1.35,2.377	c-0.525,2.168-1.321,5.443-6.435,4.304c-0.083-0.019-0.163-0.047-0.238-0.086c-0.392-0.201-2.374-1.156-2.983-0.255	c-0.195,0.293-0.438,0.629-0.699,0.99c-1.687,2.331-2.98,4.36-1.726,5.57c0.868,0.585,3.202,2.224,3.084,4.854	c-0.184,2.27-1.425,3.43-2.422,4.362c-1.298,1.213-1.891,1.767,0.041,4.526c0.032,0.046,0.062,0.096,0.086,0.148	c1.438,3.058,2.206,2.819,3.889,2.302c1.224-0.376,2.9-0.894,4.925,0.033c0.081,0.038,0.157,0.085,0.226,0.143	c2.053,1.722,2.384,3.456,2.625,4.721c0.306,1.599,0.459,2.403,8.451,1.134c0.543-0.086,1.057,0.286,1.144,0.831	c0.087,0.545-0.285,1.058-0.831,1.145C62.92,50.741,60.957,50.954,59.477,50.954z"/><path fill="#4d4dff" d="M35.104,72.758c-2.106,0-4.228-0.723-5.811-2.089c-2.219-1.915-2.977-4.799-2.08-7.913	c0.152-0.53,0.706-0.837,1.237-0.684c0.531,0.153,0.838,0.707,0.685,1.238c-0.873,3.033,0.314,4.853,1.465,5.845	c1.898,1.639,4.936,2.075,7.218,1.037c1.382-0.629,3.032-2.042,3.047-5.2c0.052-2.031-1.008-3.908-2.833-5.042	c-1.842-1.144-4.008-1.266-5.798-0.324c-0.487,0.257-1.094,0.069-1.351-0.42c-0.258-0.489-0.069-1.093,0.419-1.351	c2.425-1.275,5.334-1.127,7.785,0.396c2.435,1.513,3.847,4.043,3.777,6.771c-0.015,3.222-1.553,5.777-4.218,6.99	C37.543,72.514,36.325,72.758,35.104,72.758z"/><path fill="#0fd2ff" d="M33.709,84.998c-3.352,0-4.236-1.086-4.671-3.365c-0.211-1.105-0.429-2.247-1.844-3.479	c-1.273-0.537-2.302-0.221-3.386,0.113c-2.316,0.715-4.251,0.925-6.257-3.288c-2.646-3.82-1.438-5.464,0.28-7.071	c0.861-0.805,1.676-1.566,1.794-3.031c0.047-1.042-0.675-2.044-2.272-3.117c-0.04-0.027-0.077-0.056-0.113-0.088	c-2.773-2.508-0.159-6.121,1.402-8.279c0.245-0.339,0.473-0.653,0.66-0.934c1.026-1.514,3.003-1.681,5.441-0.469	c3.098,0.659,3.414-0.671,3.942-2.853c0.387-1.599,0.869-3.588,3.054-3.895c7.113-0.74,8.352,0.007,8.925,2.954	c0.198,1.024,0.423,2.18,1.802,3.538c1.893,0.571,3.029,0.187,4.033-0.154c2.834-0.963,4.167-0.228,7.016,6.212	c0.759,1.714-0.017,3.355-2.307,4.877c-0.975,0.739-1.118,1.719-1.059,2.405c0.11,1.251,0.949,2.453,2.138,3.06	c0.064,0.033,0.126,0.073,0.182,0.12c1.891,1.562,1.154,4.822-0.331,7.19c-1.694,2.704-4.012,3.891-5.904,3.022l-0.189-0.082	c-1.794-0.775-2.733-1.031-3.599-0.024c-0.36,0.42-0.994,0.464-1.41,0.105c-0.419-0.36-0.466-0.992-0.105-1.41	c1.921-2.231,4.32-1.193,5.907-0.507l0.208,0.089c1.06,0.486,2.504-0.829,3.398-2.257c1.133-1.807,1.49-3.842,0.813-4.53	c-1.723-0.933-2.934-2.725-3.099-4.603c-0.145-1.656,0.545-3.19,1.894-4.21c2.097-1.396,1.762-2.152,1.636-2.438	c-2.567-5.806-3.189-5.587-4.545-5.128c-1.137,0.386-2.854,0.969-5.514,0.093c-0.138-0.045-0.264-0.121-0.37-0.22	c-1.994-1.867-2.333-3.614-2.558-4.769c-0.274-1.419-0.391-2.007-6.719-1.35c-0.728,0.103-0.962,0.77-1.353,2.381	c-0.525,2.171-1.321,5.449-6.44,4.308c-0.083-0.019-0.163-0.047-0.238-0.086c-0.393-0.201-2.379-1.155-2.988-0.256	c-0.196,0.293-0.438,0.629-0.7,0.991c-1.688,2.334-2.984,4.366-1.728,5.579c0.869,0.586,3.205,2.226,3.087,4.859	c-0.184,2.272-1.426,3.433-2.424,4.366c-1.3,1.215-1.894,1.77,0.041,4.534c0.032,0.046,0.062,0.096,0.086,0.147	c1.44,3.063,2.209,2.824,3.895,2.306c1.293-0.398,2.904-0.896,4.93,0.033c0.081,0.038,0.157,0.085,0.226,0.143	c2.055,1.724,2.386,3.458,2.628,4.726c0.305,1.601,0.456,2.405,8.462,1.135c0.546-0.086,1.057,0.286,1.144,0.831	c0.087,0.545-0.285,1.058-0.831,1.145C37.156,84.785,35.19,84.998,33.709,84.998z"/></svg>